<svg width="57" height="44" viewBox="0 0 57 44" fill="none" xmlns="http://www.w3.org/2000/svg">
<path fill-rule="evenodd" clip-rule="evenodd" d="M35.174 34.916C35.174 34.4573 35.1167 34.056 35.002 33.712L24.7392 28.372H51.528C53.076 28.372 54.3373 27.9133 55.312 26.996C56.2867 26.0787 56.774 24.5593 56.774 22.438C56.774 21.2913 56.5733 20.202 56.172 19.17C55.7707 18.1953 55.4267 17.4213 55.14 16.848H25.4264L28.982 15.05C30.9313 14.0753 32.3933 13.0433 33.368 11.954C34.4 10.8073 34.916 9.23067 34.916 7.224C34.916 5.73333 34.4 4.35733 33.368 3.096C32.3933 1.77733 30.5013 0.745331 27.692 0L4.042 13.76C2.72333 14.5053 1.72 15.5373 1.032 16.856C0.343998 18.1747 0 20.038 0 22.446C0 25.6567 0.745332 28.2367 2.236 30.186L20.726 40.85C22.446 41.8247 23.8793 42.57 25.026 43.086C26.23 43.602 27.434 43.86 28.638 43.86C29.8993 43.86 30.9313 43.6593 31.734 43.258C32.594 42.7993 33.282 42.226 33.798 41.538C34.314 40.85 34.6867 40.0473 34.916 39.13C35.1453 38.2127 35.26 37.238 35.26 36.206C35.26 35.8047 35.2313 35.3747 35.174 34.916Z" fill="#433222"/>
</svg>
