<svg width="333" height="267" viewBox="0 0 333 267" fill="none" xmlns="http://www.w3.org/2000/svg">
<path d="M259.739 184.75C259.019 164.61 264.834 148.186 267.831 142.492C276.822 153.88 296.783 179.355 304.695 190.145C312.607 200.934 324.175 229.406 328.971 242.293C330.17 245.889 332.567 254.161 332.567 258.477C332.567 262.793 331.968 265.67 331.668 266.569H270.529L292.107 252.183L266.033 207.228L259.739 184.75Z" fill="#D9D9D9"/>
<path d="M292.107 252.183L288.511 245.889L306.493 253.981L285.813 256.679L292.107 252.183Z" fill="#B7B0B0"/>
<path d="M171.626 159.575V127.207L195.003 128.106L219.279 124.51L236.362 129.904L233.665 148.786L221.077 186.548L194.104 207.228L180.617 198.237L171.626 159.575Z" fill="#D9D9D9"/>
<path d="M195.004 129.005L191.407 206.329" stroke="#B7B0B0"/>
<circle cx="189.609" cy="145.189" r="1.79822" fill="#B7B0B0"/>
<circle cx="189.609" cy="161.373" r="1.79822" fill="#B7B0B0"/>
<circle cx="189.609" cy="177.557" r="1.79822" fill="#B7B0B0"/>
<path d="M211.187 141.593L195.003 128.106L223.774 111.922L233.665 128.106L211.187 141.593Z" fill="#CBCACA"/>
<path d="M171.626 126.308L185.113 112.821L195.003 128.106L175.222 139.794L171.626 126.308Z" fill="#CBCACA"/>
<path d="M144.652 144.29L172.525 126.308C174.683 170.184 188.101 201.195 192.305 200.035C213.165 194.281 227.97 149.685 232.765 128.106L267.831 142.492C261.357 149.685 259.739 173.062 259.739 183.851L266.032 207.228L261.537 265.67H151.845L144.652 144.29Z" fill="#502F09"/>
<path d="M265.134 206.329L259.739 183.851L263.336 234.201L265.134 206.329Z" fill="#3D230B"/>
<path d="M191.406 200.035L189.607 265.67" stroke="#3D230B"/>
<circle cx="195.003" cy="220.714" r="1.79822" fill="#3D230B"/>
<circle cx="195.003" cy="251.284" r="1.79822" fill="#3D230B"/>
<path d="M41.3462 162.767C39.9077 161.328 38.9486 153.776 38.6489 150.179L10.7765 154.675C5.68149 154.675 -3.06985 151.977 2.68446 141.188C8.43877 130.399 41.0465 133.696 56.6311 136.693C56.0317 134.595 55.3724 130.039 57.5302 128.601C59.6881 127.162 62.0258 129.2 62.9249 130.399C64.1237 133.995 65.9819 141.907 63.824 144.785C61.6661 147.662 56.9308 147.782 54.8329 147.482C56.0317 150.179 58.6092 155.934 59.3285 157.372C60.0477 158.811 57.8299 159.77 56.6311 160.07L47.64 162.767C46.1415 163.366 42.7848 164.205 41.3462 162.767Z" fill="#4C3228"/>
<path d="M148.249 209.925L144.652 145.189C139.617 155.978 108.988 198.836 94.3021 218.916L62.8332 160.474L40.3555 167.666L53.8421 206.328C55.041 209.625 59.7763 220.894 69.127 239.595C78.4778 258.297 88.6078 264.77 92.5039 265.67C93.1033 265.969 95.2012 266.029 98.7977 263.871C102.394 261.714 133.264 227.008 148.249 209.925Z" fill="#D9D9D9"/>
<path d="M148.249 209.026L146.451 182.952L124.872 235.999L148.249 209.026Z" fill="#B7B0B0"/>
<path d="M38.558 168.565L36.7598 157.776C43.653 155.079 57.799 149.864 59.2375 150.583C60.6761 151.303 64.0328 156.877 65.5313 159.574L38.558 168.565Z" fill="#B7B0B0"/>
<path d="M221.889 77.5087L229.981 65.8203C232.079 50.5354 236.095 18.3472 235.376 11.8736C234.657 5.40005 224.886 2.58281 220.091 1.98339C210.501 0.484873 187.543 -1.25341 172.438 3.78161C157.333 8.81664 160.15 17.8677 163.447 21.7638C160.57 34.711 163.447 54.7312 165.245 63.1229L167.943 31.6541L185.925 37.0487L209.302 30.7549L206.604 75.7105L221.889 77.5087Z" fill="black"/>
<path d="M185.026 113.473L185.925 105.381H167.942C165.785 105.381 165.245 103.583 165.245 102.684V23.562C166.744 23.562 170.64 24.4611 174.236 28.0576C177.833 31.654 185.925 31.3543 189.521 30.7549C194.616 29.5561 205.885 26.7988 210.201 25.3603C214.516 23.9217 215.595 25.9597 215.595 27.1585L216.494 70.3158H218.293V65.8203C219.731 62.9431 224.287 62.2237 226.385 62.2237C228.782 61.924 233.937 63.3026 235.376 71.2148C236.814 79.127 228.782 83.5027 224.586 84.7015L223.687 113.473L194.916 128.758L185.026 113.473Z" fill="#4C3228"/>
<path d="M185.112 111.922L185.925 105.381L220.991 90.9954L185.112 111.922Z" fill="#3D251E"/>
<path d="M190.421 77.5087L168.843 78.4078C167.344 83.5027 168.842 90.9953 176.935 90.9953C187.233 90.9953 190.122 81.1051 190.421 77.5087Z" fill="#FFF9E8"/>
</svg>
