<svg width="850" height="341" viewBox="0 0 850 341" fill="none" xmlns="http://www.w3.org/2000/svg">
<g filter="url(#filter0_d_509_2)">
<path d="M188 35V73.5L193.5 122L208 166.5L220.5 190L208 243C202.167 254.667 188.1 279.8 178.5 287C168.9 294.2 159.167 313 155.5 321.5L89 248H58L78 217L89 184.5C94.5 166.5 106.4 126.9 110 112.5C114.5 94.5 122.5 92.5 124 91C125.2 89.8 137.833 79.8333 144 75C146.833 73.6667 154.4 68.3 162 57.5C169.6 46.7 183.167 37.6667 188 35Z" fill="#4C3228"/>
</g>
<g filter="url(#filter1_dd_509_2)">
<path d="M216.5 137C216.5 137 224 189 220.5 190.5C217 192 174 194.5 174 194.5L135 150C179.5 110 176.5 97 184.5 81C190.9 68.2 195.167 50.6667 196.5 43.5C196.5 33 200.8 12 218 12C235.2 12 238.833 32 238.5 42C238.833 58.3333 237.9 92.9 231.5 100.5C225.1 108.1 218.833 128 216.5 137Z" fill="#4C3228"/>
</g>
<path d="M34 257.5L-59 360H148.5L155.5 341C159.833 328.167 158.5 294.5 118.5 262.5C78.5 230.5 45.5 245.833 34 257.5Z" fill="#D9D9D9"/>
<path d="M224.5 51.5C213.3 55.1 203.833 51 200.5 48.5V32C200.5 21.6 206.5 16.6667 209.5 15.5C216.667 14.1667 231 14.9 231 28.5C231 42.1 226.667 49.5 224.5 51.5Z" fill="#8A5F4E" fill-opacity="0.3"/>
<path d="M200.5 48.4999C204 45.9999 213.7 43.0999 224.5 51.4999C219 52.8333 206.5 54.0999 200.5 48.4999Z" fill="#D9D9D9" fill-opacity="0.1"/>
<g filter="url(#filter2_d_509_2)">
<path d="M662.559 65V103.5L657.059 152L642.559 196.5L630.059 220L642.559 273C648.392 284.667 662.459 309.8 672.059 317C681.659 324.2 691.392 343 695.059 351.5L761.559 278H792.559L772.559 247L761.559 214.5C756.059 196.5 744.159 156.9 740.559 142.5C736.059 124.5 728.059 122.5 726.559 121C725.359 119.8 712.725 109.833 706.559 105C703.725 103.667 696.159 98.3 688.559 87.5C680.959 76.7 667.392 67.6667 662.559 65Z" fill="#4C3228"/>
</g>
<g filter="url(#filter3_dd_509_2)">
<path d="M634.059 167C634.059 167 626.559 219 630.059 220.5C633.559 222 676.559 224.5 676.559 224.5L715.559 180C671.059 140 674.059 127 666.059 111C659.659 98.2 655.392 80.6667 654.059 73.5C654.059 63 649.759 42 632.559 42C615.359 42 611.725 62 612.059 72C611.725 88.3333 612.659 122.9 619.059 130.5C625.459 138.1 631.725 158 634.059 167Z" fill="#4C3228"/>
</g>
<path d="M816.559 287.5L909.559 390H702.059L695.059 371C690.725 358.167 692.059 324.5 732.059 292.5C772.059 260.5 805.059 275.833 816.559 287.5Z" fill="#D9D9D9"/>
<path d="M626.059 81.5C637.259 85.1 646.725 81 650.059 78.5V62C650.059 51.6 644.059 46.6667 641.059 45.5C633.892 44.1667 619.559 44.9 619.559 58.5C619.559 72.1 623.892 79.5 626.059 81.5Z" fill="#8A5F4E" fill-opacity="0.3"/>
<path d="M650.059 78.4999C646.559 75.9999 636.859 73.0999 626.059 81.4999C631.559 82.8333 644.059 84.0999 650.059 78.4999Z" fill="#D9D9D9" fill-opacity="0.1"/>
<defs>
<filter id="filter0_d_509_2" x="53" y="24" width="184.5" height="308.5" filterUnits="userSpaceOnUse" color-interpolation-filters="sRGB">
<feFlood flood-opacity="0" result="BackgroundImageFix"/>
<feColorMatrix in="SourceAlpha" type="matrix" values="0 0 0 0 0 0 0 0 0 0 0 0 0 0 0 0 0 0 127 0" result="hardAlpha"/>
<feOffset dx="6"/>
<feGaussianBlur stdDeviation="5.5"/>
<feComposite in2="hardAlpha" operator="out"/>
<feColorMatrix type="matrix" values="0 0 0 0 0 0 0 0 0 0 0 0 0 0 0 0 0 0 0.25 0"/>
<feBlend mode="normal" in2="BackgroundImageFix" result="effect1_dropShadow_509_2"/>
<feBlend mode="normal" in="SourceGraphic" in2="effect1_dropShadow_509_2" result="shape"/>
</filter>
<filter id="filter1_dd_509_2" x="131" y="0" width="122.559" height="200.5" filterUnits="userSpaceOnUse" color-interpolation-filters="sRGB">
<feFlood flood-opacity="0" result="BackgroundImageFix"/>
<feColorMatrix in="SourceAlpha" type="matrix" values="0 0 0 0 0 0 0 0 0 0 0 0 0 0 0 0 0 0 127 0" result="hardAlpha"/>
<feOffset dy="-7"/>
<feGaussianBlur stdDeviation="2"/>
<feComposite in2="hardAlpha" operator="out"/>
<feColorMatrix type="matrix" values="0 0 0 0 0 0 0 0 0 0 0 0 0 0 0 0 0 0 0.25 0"/>
<feBlend mode="normal" in2="BackgroundImageFix" result="effect1_dropShadow_509_2"/>
<feColorMatrix in="SourceAlpha" type="matrix" values="0 0 0 0 0 0 0 0 0 0 0 0 0 0 0 0 0 0 127 0" result="hardAlpha"/>
<feOffset dx="6" dy="-3"/>
<feGaussianBlur stdDeviation="4.5"/>
<feComposite in2="hardAlpha" operator="out"/>
<feColorMatrix type="matrix" values="0 0 0 0 0 0 0 0 0 0 0 0 0 0 0 0 0 0 0.25 0"/>
<feBlend mode="normal" in2="effect1_dropShadow_509_2" result="effect2_dropShadow_509_2"/>
<feBlend mode="normal" in="SourceGraphic" in2="effect2_dropShadow_509_2" result="shape"/>
</filter>
<filter id="filter2_d_509_2" x="613.059" y="54" width="184.5" height="308.5" filterUnits="userSpaceOnUse" color-interpolation-filters="sRGB">
<feFlood flood-opacity="0" result="BackgroundImageFix"/>
<feColorMatrix in="SourceAlpha" type="matrix" values="0 0 0 0 0 0 0 0 0 0 0 0 0 0 0 0 0 0 127 0" result="hardAlpha"/>
<feOffset dx="-6"/>
<feGaussianBlur stdDeviation="5.5"/>
<feComposite in2="hardAlpha" operator="out"/>
<feColorMatrix type="matrix" values="0 0 0 0 0 0 0 0 0 0 0 0 0 0 0 0 0 0 0.25 0"/>
<feBlend mode="normal" in2="BackgroundImageFix" result="effect1_dropShadow_509_2"/>
<feBlend mode="normal" in="SourceGraphic" in2="effect1_dropShadow_509_2" result="shape"/>
</filter>
<filter id="filter3_dd_509_2" x="591" y="23" width="131.559" height="210.5" filterUnits="userSpaceOnUse" color-interpolation-filters="sRGB">
<feFlood flood-opacity="0" result="BackgroundImageFix"/>
<feColorMatrix in="SourceAlpha" type="matrix" values="0 0 0 0 0 0 0 0 0 0 0 0 0 0 0 0 0 0 127 0" result="hardAlpha"/>
<feOffset dy="-7"/>
<feGaussianBlur stdDeviation="2"/>
<feComposite in2="hardAlpha" operator="out"/>
<feColorMatrix type="matrix" values="0 0 0 0 0 0 0 0 0 0 0 0 0 0 0 0 0 0 0.25 0"/>
<feBlend mode="normal" in2="BackgroundImageFix" result="effect1_dropShadow_509_2"/>
<feColorMatrix in="SourceAlpha" type="matrix" values="0 0 0 0 0 0 0 0 0 0 0 0 0 0 0 0 0 0 127 0" result="hardAlpha"/>
<feOffset dx="-7" dy="-5"/>
<feGaussianBlur stdDeviation="7"/>
<feComposite in2="hardAlpha" operator="out"/>
<feColorMatrix type="matrix" values="0 0 0 0 0 0 0 0 0 0 0 0 0 0 0 0 0 0 0.25 0"/>
<feBlend mode="normal" in2="effect1_dropShadow_509_2" result="effect2_dropShadow_509_2"/>
<feBlend mode="normal" in="SourceGraphic" in2="effect2_dropShadow_509_2" result="shape"/>
</filter>
</defs>
</svg>
