<svg width="572" height="244" viewBox="0 0 572 244" fill="none" xmlns="http://www.w3.org/2000/svg">
<g filter="url(#filter0_d_470_156)">
<line x1="42.5215" y1="181.986" x2="96.7368" y2="181.986" stroke="#4F4E47" stroke-width="5" stroke-linecap="round"/>
<path d="M117.74 44.5896H20.7754L57.0443 60.1336L62.9658 223.716C62.9658 223.716 35.5792 229.637 34.0984 234.079C32.6175 238.52 34.0984 240 34.0984 240H104.417C104.417 240 105.156 238.52 104.417 234.079C103.677 229.637 75.5491 223.716 75.5491 223.716L81.4706 60.1336L117.74 44.5896Z" fill="#0E0812"/>
<path d="M117.74 44.5894H20.7748C8.93174 33.3385 7.45136 23.6173 8.19155 20.1631H131.063C129.287 32.0061 121.441 41.3819 117.74 44.5894Z" fill="#2F2E2C"/>
<path d="M131.065 20.1631H8.19336C8.78551 14.2416 12.3878 12.7612 14.1149 12.7612H124.403C128.548 12.7612 130.572 17.6958 131.065 20.1631Z" fill="#F9F0C0"/>
</g>
<g filter="url(#filter1_d_470_156)">
<line x1="258.815" y1="181.986" x2="313.031" y2="181.986" stroke="#4F4E47" stroke-width="5" stroke-linecap="round"/>
<path d="M334.036 44.5896H237.071L273.34 60.1336L279.262 223.716C279.262 223.716 251.875 229.637 250.394 234.079C248.913 238.52 250.394 240 250.394 240H320.712C320.712 240 321.452 238.52 320.712 234.079C319.973 229.637 291.845 223.716 291.845 223.716L297.766 60.1336L334.036 44.5896Z" fill="#0E0812"/>
<path d="M334.035 44.5894H237.07C225.227 33.3385 223.746 23.6173 224.486 20.1631H347.358C345.582 32.0061 337.736 41.3819 334.035 44.5894Z" fill="#2F2E2C"/>
<path d="M347.359 20.1631H224.487C225.079 14.2416 228.682 12.7612 230.409 12.7612H340.697C344.842 12.7612 346.866 17.6958 347.359 20.1631Z" fill="#F9F0C0"/>
</g>
<g filter="url(#filter2_d_470_156)">
<line x1="475.106" y1="181.986" x2="529.322" y2="181.986" stroke="#4F4E47" stroke-width="5" stroke-linecap="round"/>
<path d="M550.326 44.5896H453.361L489.63 60.1336L495.552 223.716C495.552 223.716 468.165 229.637 466.684 234.079C465.203 238.52 466.684 240 466.684 240H537.002C537.002 240 537.742 238.52 537.002 234.079C536.263 229.637 508.135 223.716 508.135 223.716L514.057 60.1336L550.326 44.5896Z" fill="#0E0812"/>
<path d="M550.328 44.5894H453.363C441.52 33.3385 440.039 23.6173 440.779 20.1631H563.651C561.875 32.0061 554.029 41.3819 550.328 44.5894Z" fill="#2F2E2C"/>
<path d="M563.65 20.1631H440.778C441.37 14.2416 444.973 12.7612 446.7 12.7612H556.988C561.133 12.7612 563.157 17.6958 563.65 20.1631Z" fill="#F9F0C0"/>
</g>
<defs>
<filter id="filter0_d_470_156" x="0.0332031" y="0.76123" width="139.032" height="243.239" filterUnits="userSpaceOnUse" color-interpolation-filters="sRGB">
<feFlood flood-opacity="0" result="BackgroundImageFix"/>
<feColorMatrix in="SourceAlpha" type="matrix" values="0 0 0 0 0 0 0 0 0 0 0 0 0 0 0 0 0 0 127 0" result="hardAlpha"/>
<feOffset dy="-4"/>
<feGaussianBlur stdDeviation="4"/>
<feComposite in2="hardAlpha" operator="out"/>
<feColorMatrix type="matrix" values="0 0 0 0 0 0 0 0 0 0 0 0 0 0 0 0 0 0 0.48 0"/>
<feBlend mode="normal" in2="BackgroundImageFix" result="effect1_dropShadow_470_156"/>
<feBlend mode="normal" in="SourceGraphic" in2="effect1_dropShadow_470_156" result="shape"/>
</filter>
<filter id="filter1_d_470_156" x="216.328" y="0.76123" width="139.031" height="243.239" filterUnits="userSpaceOnUse" color-interpolation-filters="sRGB">
<feFlood flood-opacity="0" result="BackgroundImageFix"/>
<feColorMatrix in="SourceAlpha" type="matrix" values="0 0 0 0 0 0 0 0 0 0 0 0 0 0 0 0 0 0 127 0" result="hardAlpha"/>
<feOffset dy="-4"/>
<feGaussianBlur stdDeviation="4"/>
<feComposite in2="hardAlpha" operator="out"/>
<feColorMatrix type="matrix" values="0 0 0 0 0 0 0 0 0 0 0 0 0 0 0 0 0 0 0.48 0"/>
<feBlend mode="normal" in2="BackgroundImageFix" result="effect1_dropShadow_470_156"/>
<feBlend mode="normal" in="SourceGraphic" in2="effect1_dropShadow_470_156" result="shape"/>
</filter>
<filter id="filter2_d_470_156" x="432.621" y="0.76123" width="139.03" height="243.239" filterUnits="userSpaceOnUse" color-interpolation-filters="sRGB">
<feFlood flood-opacity="0" result="BackgroundImageFix"/>
<feColorMatrix in="SourceAlpha" type="matrix" values="0 0 0 0 0 0 0 0 0 0 0 0 0 0 0 0 0 0 127 0" result="hardAlpha"/>
<feOffset dy="-4"/>
<feGaussianBlur stdDeviation="4"/>
<feComposite in2="hardAlpha" operator="out"/>
<feColorMatrix type="matrix" values="0 0 0 0 0 0 0 0 0 0 0 0 0 0 0 0 0 0 0.48 0"/>
<feBlend mode="normal" in2="BackgroundImageFix" result="effect1_dropShadow_470_156"/>
<feBlend mode="normal" in="SourceGraphic" in2="effect1_dropShadow_470_156" result="shape"/>
</filter>
</defs>
</svg>
