<svg width="162" height="151" viewBox="0 0 162 151" fill="none" xmlns="http://www.w3.org/2000/svg">
<path fill-rule="evenodd" clip-rule="evenodd" d="M135.31 114.557C151.625 102.549 161.87 85.2133 161.87 65.9367C161.87 29.6875 125.641 0.301636 80.9503 0.301636C36.2594 0.301636 0.0302734 29.6875 0.0302734 65.9367C0.0302734 102.186 36.2594 131.572 80.9503 131.572C86.6201 131.572 92.1538 131.099 97.4945 130.199C103.056 130.306 106.022 132.916 108.124 134.766C108.712 135.283 109.232 135.741 109.722 136.068L120.511 143.26C127.704 146.857 142.09 151.892 145.687 150.453C149.283 149.015 147.185 145.658 145.687 144.16C142.09 142.361 134.358 136.607 132.2 127.976C130.898 122.767 132.804 117.952 135.31 114.557Z" fill="white"/>
</svg>
