<svg width="90" height="84" viewBox="0 0 90 84" fill="none" xmlns="http://www.w3.org/2000/svg">
<path fill-rule="evenodd" clip-rule="evenodd" d="M75.2295 63.5382C84.3024 56.8606 90 47.22 90 36.5C90 16.3416 69.8528 0 45 0C20.1472 0 0 16.3416 0 36.5C0 56.6584 20.1472 73 45 73C48.1532 73 51.2306 72.737 54.2007 72.2364C57.2929 72.296 58.9423 73.7474 60.1112 74.776C60.438 75.0636 60.7273 75.3182 61.0001 75.5L67 79.5C71 81.5 79.0001 84.3 81.0001 83.5C83.0001 82.7 81.8334 80.8333 81.0001 80C79.0001 79 74.7 75.8 73.5 71C72.776 68.104 73.8357 65.4264 75.2295 63.5382Z" fill="white"/>
</svg>
