<svg width="579" height="208" viewBox="0 0 579 208" fill="none" xmlns="http://www.w3.org/2000/svg">
<g filter="url(#filter0_d_509_3)">
<path d="M114.791 73.5814L106.408 79.0868C104.728 76.497 105.41 72.9923 108.018 71.2378L116.39 65.6059C118.158 68.2167 117.475 71.8182 114.791 73.5814Z" fill="#CDAC94" stroke="#684E2F" stroke-linejoin="bevel"/>
<path d="M115.023 15.4643L106.64 20.9698C104.961 18.3799 105.642 14.8752 108.25 13.1208L116.623 7.48887C118.391 10.0997 117.708 13.7011 115.023 15.4643Z" fill="#CDAC94" stroke="#684E2F" stroke-linejoin="bevel"/>
<path d="M114.791 102.628L106.408 108.134C104.728 105.544 105.41 102.039 108.018 100.285L116.39 94.6528C118.158 97.2636 117.475 100.865 114.791 102.628Z" fill="#CDAC94" stroke="#684E2F" stroke-linejoin="bevel"/>
<path d="M115.023 44.5112L106.64 50.0166C104.961 47.4268 105.642 43.9221 108.25 42.1677L116.623 36.5357C118.391 39.1465 117.708 42.748 115.023 44.5112Z" fill="#CDAC94" stroke="#684E2F" stroke-linejoin="bevel"/>
<path d="M114.86 59.1713L106.477 64.6768C104.798 62.087 105.479 58.5822 108.087 56.8278L116.459 51.1959C118.228 53.8067 117.545 57.4082 114.86 59.1713Z" fill="#CDAC94" stroke="#684E2F" stroke-linejoin="bevel"/>
<path d="M115.092 1.05426L106.709 6.55972C105.029 3.96991 105.711 0.465162 108.319 -1.28925L116.691 -6.92116C118.459 -4.31038 117.776 -0.708889 115.092 1.05426Z" fill="#CDAC94" stroke="#684E2F" stroke-linejoin="bevel"/>
<path d="M114.86 88.2182L106.477 93.7237C104.798 91.1338 105.479 87.6291 108.087 85.8747L116.459 80.2428C118.228 82.8536 117.545 86.4551 114.86 88.2182Z" fill="#CDAC94" stroke="#684E2F" stroke-linejoin="bevel"/>
<path d="M115.092 30.1011L106.709 35.6066C105.029 33.0168 105.711 29.512 108.319 27.7576L116.691 22.1257C118.459 24.7365 117.776 28.338 115.092 30.1011Z" fill="#CDAC94" stroke="#684E2F" stroke-linejoin="bevel"/>
<path d="M115.022 80.4474L106.639 85.9529C104.96 83.3631 105.641 79.8584 108.249 78.1039L116.622 72.472C118.39 75.0828 117.707 78.6843 115.022 80.4474Z" fill="#CDAC94" stroke="#684E2F" stroke-linejoin="bevel"/>
<path d="M115.254 22.3303L106.871 27.8357C105.191 25.2459 105.873 21.7412 108.481 19.9867L116.853 14.3548C118.621 16.9656 117.938 20.5671 115.254 22.3303Z" fill="#CDAC94" stroke="#684E2F" stroke-linejoin="bevel"/>
<path d="M115.022 109.494L106.639 115C104.96 112.41 105.641 108.905 108.249 107.151L116.622 101.519C118.39 104.13 117.707 107.731 115.022 109.494Z" fill="#CDAC94" stroke="#684E2F" stroke-linejoin="bevel"/>
<path d="M115.254 51.3773L106.871 56.8827C105.191 54.2929 105.873 50.7882 108.481 49.0337L116.853 43.4018C118.621 46.0126 117.938 49.6141 115.254 51.3773Z" fill="#CDAC94" stroke="#684E2F" stroke-linejoin="bevel"/>
<path d="M115.091 66.0374L106.708 71.5429C105.028 68.9531 105.71 65.4483 108.318 63.6939L116.69 58.062C118.458 60.6728 117.775 64.2743 115.091 66.0374Z" fill="#CDAC94" stroke="#684E2F" stroke-linejoin="bevel"/>
<path d="M115.323 7.92023L106.94 13.4257C105.261 10.8359 105.942 7.33113 108.55 5.57671L116.922 -0.0551932C118.691 2.55559 118.008 6.15708 115.323 7.92023Z" fill="#CDAC94" stroke="#684E2F" stroke-linejoin="bevel"/>
<path d="M115.091 95.0843L106.708 100.59C105.028 97.9999 105.71 94.4952 108.318 92.7408L116.69 87.1089C118.458 89.7197 117.775 93.3211 115.091 95.0843Z" fill="#CDAC94" stroke="#684E2F" stroke-linejoin="bevel"/>
<path d="M115.323 36.9671L106.94 42.4726C105.261 39.8827 105.942 36.378 108.55 34.6236L116.922 28.9917C118.691 31.6025 118.008 35.204 115.323 36.9671Z" fill="#CDAC94" stroke="#684E2F" stroke-linejoin="bevel"/>
</g>
<g filter="url(#filter1_d_509_3)">
<path d="M491.791 74.5814L483.408 80.0868C481.728 77.497 482.41 73.9923 485.018 72.2378L493.39 66.6059C495.158 69.2167 494.475 72.8182 491.791 74.5814Z" fill="#CDAC94" stroke="#684E2F" stroke-linejoin="bevel"/>
<path d="M492.023 16.4643L483.64 21.9698C481.961 19.3799 482.642 15.8752 485.25 14.1208L493.623 8.48887C495.391 11.0997 494.708 14.7011 492.023 16.4643Z" fill="#CDAC94" stroke="#684E2F" stroke-linejoin="bevel"/>
<path d="M491.791 103.628L483.408 109.134C481.728 106.544 482.41 103.039 485.018 101.285L493.39 95.6528C495.158 98.2636 494.475 101.865 491.791 103.628Z" fill="#CDAC94" stroke="#684E2F" stroke-linejoin="bevel"/>
<path d="M492.023 45.5112L483.64 51.0166C481.961 48.4268 482.642 44.9221 485.25 43.1677L493.623 37.5357C495.391 40.1465 494.708 43.748 492.023 45.5112Z" fill="#CDAC94" stroke="#684E2F" stroke-linejoin="bevel"/>
<path d="M491.86 60.1713L483.477 65.6768C481.798 63.087 482.479 59.5822 485.087 57.8278L493.459 52.1959C495.228 54.8067 494.545 58.4082 491.86 60.1713Z" fill="#CDAC94" stroke="#684E2F" stroke-linejoin="bevel"/>
<path d="M492.092 2.05426L483.709 7.55972C482.029 4.96991 482.711 1.46516 485.319 -0.289253L493.691 -5.92116C495.459 -3.31038 494.776 0.291111 492.092 2.05426Z" fill="#CDAC94" stroke="#684E2F" stroke-linejoin="bevel"/>
<path d="M491.86 89.2182L483.477 94.7237C481.798 92.1338 482.479 88.6291 485.087 86.8747L493.459 81.2428C495.228 83.8536 494.545 87.4551 491.86 89.2182Z" fill="#CDAC94" stroke="#684E2F" stroke-linejoin="bevel"/>
<path d="M492.092 31.1011L483.709 36.6066C482.029 34.0168 482.711 30.512 485.319 28.7576L493.691 23.1257C495.459 25.7365 494.776 29.338 492.092 31.1011Z" fill="#CDAC94" stroke="#684E2F" stroke-linejoin="bevel"/>
<path d="M492.022 81.4474L483.639 86.9529C481.96 84.3631 482.641 80.8584 485.249 79.1039L493.622 73.472C495.39 76.0828 494.707 79.6843 492.022 81.4474Z" fill="#CDAC94" stroke="#684E2F" stroke-linejoin="bevel"/>
<path d="M492.254 23.3303L483.871 28.8357C482.191 26.2459 482.873 22.7412 485.481 20.9867L493.853 15.3548C495.621 17.9656 494.938 21.5671 492.254 23.3303Z" fill="#CDAC94" stroke="#684E2F" stroke-linejoin="bevel"/>
<path d="M492.022 110.494L483.639 116C481.96 113.41 482.641 109.905 485.249 108.151L493.622 102.519C495.39 105.13 494.707 108.731 492.022 110.494Z" fill="#CDAC94" stroke="#684E2F" stroke-linejoin="bevel"/>
<path d="M492.254 52.3773L483.871 57.8827C482.191 55.2929 482.873 51.7882 485.481 50.0337L493.853 44.4018C495.621 47.0126 494.938 50.6141 492.254 52.3773Z" fill="#CDAC94" stroke="#684E2F" stroke-linejoin="bevel"/>
<path d="M492.091 67.0374L483.708 72.5429C482.028 69.9531 482.71 66.4483 485.318 64.6939L493.69 59.062C495.458 61.6728 494.775 65.2743 492.091 67.0374Z" fill="#CDAC94" stroke="#684E2F" stroke-linejoin="bevel"/>
<path d="M492.323 8.92023L483.94 14.4257C482.261 11.8359 482.942 8.33113 485.55 6.57671L493.922 0.944807C495.691 3.55559 495.008 7.15708 492.323 8.92023Z" fill="#CDAC94" stroke="#684E2F" stroke-linejoin="bevel"/>
<path d="M492.091 96.0843L483.708 101.59C482.028 98.9999 482.71 95.4952 485.318 93.7408L493.69 88.1089C495.458 90.7197 494.775 94.3211 492.091 96.0843Z" fill="#CDAC94" stroke="#684E2F" stroke-linejoin="bevel"/>
<path d="M492.323 37.9671L483.94 43.4726C482.261 40.8827 482.942 37.378 485.55 35.6236L493.922 29.9917C495.691 32.6025 495.008 36.204 492.323 37.9671Z" fill="#CDAC94" stroke="#684E2F" stroke-linejoin="bevel"/>
</g>
<g filter="url(#filter2_d_509_3)">
<path d="M552 186.5H29.5C29.5 186.5 35.9207 169.781 29.5 163.5C23.2189 157.355 7 163.5 7 163.5V108C7 108 23.5046 114.424 29.5 108C35.0957 102.005 29.5 87 29.5 87H552C552 87 546.477 101.477 552 107C557.523 112.523 572 107 572 107V163.5C572 163.5 557.894 158.375 552 163.5C545.222 169.394 552 186.5 552 186.5Z" fill="#4C3228"/>
</g>
<circle cx="13" cy="118" r="3" fill="#676767"/>
<circle cx="13" cy="156" r="3" fill="#676767"/>
<circle cx="37" cy="93" r="3" fill="#676767"/>
<circle cx="37" cy="181" r="3" fill="#676767"/>
<circle r="3" transform="matrix(-1 0 0 1 565 118)" fill="#676767"/>
<circle r="3" transform="matrix(-1 0 0 1 565 156)" fill="#676767"/>
<circle r="3" transform="matrix(-1 0 0 1 541 93)" fill="#676767"/>
<circle r="3" transform="matrix(-1 0 0 1 541 181)" fill="#676767"/>
<defs>
<filter id="filter0_d_509_3" x="100.991" y="-7.60315" width="21.4102" height="131.286" filterUnits="userSpaceOnUse" color-interpolation-filters="sRGB">
<feFlood flood-opacity="0" result="BackgroundImageFix"/>
<feColorMatrix in="SourceAlpha" type="matrix" values="0 0 0 0 0 0 0 0 0 0 0 0 0 0 0 0 0 0 127 0" result="hardAlpha"/>
<feOffset dy="4"/>
<feGaussianBlur stdDeviation="2"/>
<feComposite in2="hardAlpha" operator="out"/>
<feColorMatrix type="matrix" values="0 0 0 0 0 0 0 0 0 0 0 0 0 0 0 0 0 0 0.25 0"/>
<feBlend mode="normal" in2="BackgroundImageFix" result="effect1_dropShadow_509_3"/>
<feBlend mode="normal" in="SourceGraphic" in2="effect1_dropShadow_509_3" result="shape"/>
</filter>
<filter id="filter1_d_509_3" x="477.991" y="-6.60315" width="21.4102" height="131.286" filterUnits="userSpaceOnUse" color-interpolation-filters="sRGB">
<feFlood flood-opacity="0" result="BackgroundImageFix"/>
<feColorMatrix in="SourceAlpha" type="matrix" values="0 0 0 0 0 0 0 0 0 0 0 0 0 0 0 0 0 0 127 0" result="hardAlpha"/>
<feOffset dy="4"/>
<feGaussianBlur stdDeviation="2"/>
<feComposite in2="hardAlpha" operator="out"/>
<feColorMatrix type="matrix" values="0 0 0 0 0 0 0 0 0 0 0 0 0 0 0 0 0 0 0.25 0"/>
<feBlend mode="normal" in2="BackgroundImageFix" result="effect1_dropShadow_509_3"/>
<feBlend mode="normal" in="SourceGraphic" in2="effect1_dropShadow_509_3" result="shape"/>
</filter>
<filter id="filter2_d_509_3" x="0" y="87" width="579" height="120.5" filterUnits="userSpaceOnUse" color-interpolation-filters="sRGB">
<feFlood flood-opacity="0" result="BackgroundImageFix"/>
<feColorMatrix in="SourceAlpha" type="matrix" values="0 0 0 0 0 0 0 0 0 0 0 0 0 0 0 0 0 0 127 0" result="hardAlpha"/>
<feOffset dy="14"/>
<feGaussianBlur stdDeviation="3.5"/>
<feComposite in2="hardAlpha" operator="out"/>
<feColorMatrix type="matrix" values="0 0 0 0 0 0 0 0 0 0 0 0 0 0 0 0 0 0 0.25 0"/>
<feBlend mode="normal" in2="BackgroundImageFix" result="effect1_dropShadow_509_3"/>
<feBlend mode="normal" in="SourceGraphic" in2="effect1_dropShadow_509_3" result="shape"/>
</filter>
</defs>
</svg>
