<svg width="185" height="148" viewBox="0 0 185 148" fill="none" xmlns="http://www.w3.org/2000/svg">
<path d="M144 102.5C143.6 91.3 146.833 82.1667 148.5 79C153.5 85.3333 164.6 99.5 169 105.5C173.4 111.5 179.833 127.333 182.5 134.5C183.167 136.5 184.5 141.1 184.5 143.5C184.5 145.9 184.167 147.5 184 148H150L162 140L147.5 115L144 102.5Z" fill="#D9D9D9"/>
<path d="M162 140L160 136.5L170 141L158.5 142.5L162 140Z" fill="#B7B0B0"/>
<path d="M95 88.5V70.5L108 71L121.5 69L131 72L129.5 82.5L122.5 103.5L107.5 115L100 110L95 88.5Z" fill="#D9D9D9"/>
<path d="M108 71.5L106 114.5" stroke="#B7B0B0"/>
<circle cx="105" cy="80.5" r="1" fill="#B7B0B0"/>
<circle cx="105" cy="89.5" r="1" fill="#B7B0B0"/>
<circle cx="105" cy="98.5" r="1" fill="#B7B0B0"/>
<path d="M117 78.5L108 71L124 62L129.5 71L117 78.5Z" fill="#CBCACA"/>
<path d="M95 70L102.5 62.5L108 71L97 77.5L95 70Z" fill="#CBCACA"/>
<path d="M80 80L95.5 70C96.7 94.4 104.162 111.645 106.5 111C118.1 107.8 126.333 83 129 71L148.5 79C144.9 83 144 96 144 102L147.5 115L145 147.5H84L80 80Z" fill="#502F09"/>
<path d="M147 114.5L144 102L146 130L147 114.5Z" fill="#3D230B"/>
<path d="M106 111L105 147.5" stroke="#3D230B"/>
<circle cx="108" cy="122.5" r="1" fill="#3D230B"/>
<circle cx="108" cy="139.5" r="1" fill="#3D230B"/>
<path d="M22.5508 90.2752C21.7508 89.4752 21.2174 85.2752 21.0508 83.2752L5.55078 85.7751C2.71745 85.7751 -2.14922 84.2751 1.05078 78.2751C4.25078 72.2751 22.3841 74.1085 31.0508 75.7751C30.7174 74.6085 30.3508 72.0752 31.5508 71.2752C32.7508 70.4752 34.0508 71.6085 34.5508 72.2752C35.2174 74.2752 36.2508 78.6752 35.0508 80.2752C33.8508 81.8752 31.2174 81.9418 30.0508 81.7752C30.7174 83.2752 32.1508 86.4752 32.5508 87.2752C32.9508 88.0752 31.7174 88.6085 31.0508 88.7752L26.0508 90.2752C25.2174 90.6085 23.3508 91.0752 22.5508 90.2752Z" fill="#4C3228"/>
<path d="M82 116.5L80 80.5C77.2 86.5 60.1667 110.333 52 121.5L34.5 89L22 93L29.5 114.5C30.1667 116.333 32.8 122.6 38 133C43.2 143.4 48.8333 147 51 147.5C51.3333 147.667 52.5 147.7 54.5 146.5C56.5 145.3 73.6667 126 82 116.5Z" fill="#D9D9D9"/>
<path d="M82 116L81 101.5L69 131L82 116Z" fill="#B7B0B0"/>
<path d="M21 93.4999L20 87.4999C23.8333 85.9999 31.7 83.0999 32.5 83.4999C33.3 83.8999 35.1667 86.9999 36 88.4999L21 93.4999Z" fill="#B7B0B0"/>
<path d="M122.952 42.8625L127.452 36.3625C128.619 27.8625 130.852 9.96255 130.452 6.36255C130.052 2.76255 124.619 1.19587 121.952 0.862529C116.619 0.0291954 103.852 -0.937471 95.452 1.86253C87.052 4.66253 88.6187 9.69586 90.4521 11.8625C88.8521 19.0625 90.4521 30.1959 91.4521 34.8625L92.9521 17.3625L102.952 20.3625L115.952 16.8625L114.452 41.8625L122.952 42.8625Z" fill="black"/>
<path d="M102.452 62.8625L102.952 58.3625H92.9521C91.7521 58.3625 91.4521 57.3625 91.4521 56.8625V12.8625C92.2855 12.8625 94.4521 13.3625 96.4521 15.3625C98.4521 17.3625 102.952 17.1959 104.952 16.8625C107.785 16.1959 114.052 14.6626 116.452 13.8626C118.852 13.0626 119.452 14.1959 119.452 14.8626L119.952 38.8626H120.952V36.3626C121.752 34.7626 124.285 34.3625 125.452 34.3625C126.785 34.1958 129.652 34.9625 130.452 39.3625C131.252 43.7625 126.785 46.1958 124.452 46.8625L123.952 62.8625L107.952 71.3625L102.452 62.8625Z" fill="#4C3228"/>
<path d="M102.5 62L102.952 58.3625L122.452 50.3625L102.5 62Z" fill="#3D251E"/>
<path d="M105.452 42.8625L93.4522 43.3625C92.6189 46.1959 93.452 50.3625 97.9522 50.3625C103.679 50.3625 105.286 44.8625 105.452 42.8625Z" fill="#FFF9E8"/>
</svg>
